<svg width="22" height="21" viewBox="0 0 22 21" fill="none" xmlns="http://www.w3.org/2000/svg">
<g clip-path="url(#clip0_29_2)">
<path d="M6.23944 11.1586H8.52708V20.5764C8.52708 20.7624 8.67774 20.913 8.86368 20.913H12.7425C12.9284 20.913 13.0791 20.7624 13.0791 20.5764V11.203H15.7089C15.8799 11.203 16.0238 11.0746 16.0433 10.9048L16.4427 7.43761C16.4537 7.34222 16.4234 7.24669 16.3596 7.17513C16.2957 7.1035 16.2043 7.0625 16.1084 7.0625H13.0792V4.8891C13.0792 4.23393 13.432 3.9017 14.1278 3.9017C14.227 3.9017 16.1084 3.9017 16.1084 3.9017C16.2943 3.9017 16.445 3.75097 16.445 3.5651V0.382554C16.445 0.196613 16.2943 0.0459479 16.1084 0.0459479H13.3788C13.3596 0.0450054 13.3168 0.043457 13.2538 0.043457C12.7802 0.043457 11.134 0.136427 9.83365 1.33272C8.39284 2.65841 8.59312 4.24571 8.64099 4.52092V7.06243H6.23944C6.0535 7.06243 5.90283 7.2131 5.90283 7.39904V10.8219C5.90283 11.0079 6.0535 11.1586 6.23944 11.1586Z" fill="#7E7777"/>
</g>
<defs>
<clipPath id="clip0_29_2">
<rect width="20.8696" height="20.8696" fill="white" transform="translate(0.739014 0.043457)"/>
</clipPath>
</defs>
</svg>
