<svg   width="27" height="27" viewBox="0 0 27 27" fill="none"  xmlns="http://www.w3.org/2000/svg">
    <path   d="M18.7826 2.17389H7.91305C4.91151 2.17389 2.47827 4.60712 2.47827 7.60867V18.4782C2.47827 21.4798 4.91151 23.913 7.91305 23.913H18.7826C21.7842 23.913 24.2174 21.4798 24.2174 18.4782V7.60867C24.2174 4.60712 21.7842 2.17389 18.7826 2.17389Z" stroke="white" stroke-width="1.30435" stroke-linecap="round" stroke-linejoin="round"/>
    <path d="M17.6957 12.3587C17.8299 13.2633 17.6754 14.1872 17.2542 14.9989C16.833 15.8107 16.1666 16.4689 15.3497 16.8801C14.5328 17.2912 13.6071 17.4343 12.7042 17.2891C11.8013 17.1438 10.9672 16.7175 10.3206 16.0708C9.67392 15.4242 9.24763 14.5901 9.10234 13.6872C8.95706 12.7843 9.10017 11.8586 9.51132 11.0417C9.92247 10.2248 10.5807 9.55842 11.3925 9.13722C12.2042 8.71603 13.1281 8.56151 14.0327 8.69565C14.9554 8.83248 15.8097 9.26246 16.4693 9.92207C17.1289 10.5817 17.5589 11.436 17.6957 12.3587Z" stroke="white" stroke-width="1.30435" stroke-linecap="round" stroke-linejoin="round"/>
    <path d="M19.3262 7.06522H19.3375" stroke="white" stroke-width="1.30435" stroke-linecap="round" stroke-linejoin="round"/>
</svg>
