<svg width="27" height="27" viewBox="0 0 27 27" fill="none" xmlns="http://www.w3.org/2000/svg">
<path   d="M20.9565 4.04349H5.7391C4.53848 4.04349 3.56519 5.01678 3.56519 6.2174V21.4348C3.56519 22.6354 4.53848 23.6087 5.7391 23.6087H20.9565C22.1571 23.6087 23.1304 22.6354 23.1304 21.4348V6.2174C23.1304 5.01678 22.1571 4.04349 20.9565 4.04349Z" stroke="white" stroke-width="1.30435" stroke-linecap="round" stroke-linejoin="round"/>
<path d="M9.54352 11.6522C10.444 11.6522 11.174 10.9222 11.174 10.0218C11.174 9.1213 10.444 8.39133 9.54352 8.39133C8.64306 8.39133 7.91309 9.1213 7.91309 10.0218C7.91309 10.9222 8.64306 11.6522 9.54352 11.6522Z" stroke="white" stroke-width="1.30435" stroke-linecap="round" stroke-linejoin="round"/>
<path d="M23.1303 17.087L17.6955 11.6522L5.73901 23.6087" stroke="white" stroke-width="1.30435" stroke-linecap="round" stroke-linejoin="round"/>
</svg>
