<svg width="22" height="21" viewBox="0 0 22 21" fill="none" xmlns="http://www.w3.org/2000/svg">
<path d="M10.9588 5.12755C7.99776 5.12755 5.60934 7.5165 5.60934 10.4782C5.60934 13.44 7.99776 15.8289 10.9588 15.8289C13.9199 15.8289 16.3083 13.44 16.3083 10.4782C16.3083 7.5165 13.9199 5.12755 10.9588 5.12755ZM10.9588 13.9569C9.04531 13.9569 7.48097 12.3969 7.48097 10.4782C7.48097 8.55963 9.04065 6.99959 10.9588 6.99959C12.877 6.99959 14.4367 8.55963 14.4367 10.4782C14.4367 12.3969 12.8724 13.9569 10.9588 13.9569ZM17.7749 4.90868C17.7749 5.60254 17.2162 6.15671 16.5272 6.15671C15.8335 6.15671 15.2794 5.59789 15.2794 4.90868C15.2794 4.21947 15.8381 3.66065 16.5272 3.66065C17.2162 3.66065 17.7749 4.21947 17.7749 4.90868ZM21.318 6.17533C21.2388 4.50353 20.857 3.02266 19.6326 1.80257C18.4128 0.582485 16.9322 0.200625 15.2608 0.116802C13.5381 0.0190087 8.37488 0.0190087 6.65224 0.116802C4.98546 0.195968 3.50492 0.577828 2.28045 1.79792C1.05598 3.018 0.678861 4.49888 0.595057 6.17068C0.497286 7.8937 0.497286 13.0581 0.595057 14.7811C0.674206 16.4529 1.05598 17.9338 2.28045 19.1539C3.50492 20.374 4.98081 20.7559 6.65224 20.8397C8.37488 20.9375 13.5381 20.9375 15.2608 20.8397C16.9322 20.7605 18.4128 20.3787 19.6326 19.1539C20.8524 17.9338 21.2342 16.4529 21.318 14.7811C21.4157 13.0581 21.4157 7.89836 21.318 6.17533ZM19.0925 16.6299C18.7293 17.5426 18.0263 18.2458 17.1091 18.6137C15.7357 19.1586 12.4766 19.0328 10.9588 19.0328C9.44105 19.0328 6.17735 19.1539 4.80854 18.6137C3.89601 18.2505 3.19299 17.5473 2.82518 16.6299C2.28045 15.2561 2.40616 11.9964 2.40616 10.4782C2.40616 8.96011 2.28511 5.69568 2.82518 4.32657C3.18833 3.41383 3.89135 2.71065 4.80854 2.34276C6.182 1.79792 9.44105 1.92365 10.9588 1.92365C12.4766 1.92365 15.7403 1.80257 17.1091 2.34276C18.0217 2.706 18.7247 3.40918 19.0925 4.32657C19.6372 5.70034 19.5115 8.96011 19.5115 10.4782C19.5115 11.9964 19.6372 15.2608 19.0925 16.6299Z"/>
</svg>
