<svg width="21" height="21" viewBox="0 0 21 21" fill="none" xmlns="http://www.w3.org/2000/svg">
<g clip-path="url(#clip0_27_86)">
<path d="M15.5728 12.0354C15.5321 12.0159 14.0106 11.2667 13.7403 11.1694C13.6299 11.1298 13.5117 11.0911 13.3859 11.0911C13.1805 11.0911 13.0079 11.1935 12.8735 11.3946C12.7215 11.6205 12.2614 12.1583 12.1192 12.3189C12.1007 12.3401 12.0753 12.3655 12.0602 12.3655C12.0465 12.3655 11.8111 12.2685 11.7398 12.2376C10.1077 11.5286 8.86888 9.82373 8.69901 9.53623C8.67475 9.4949 8.67373 9.47613 8.67353 9.47613C8.67949 9.45424 8.73438 9.39922 8.7627 9.37083C8.84557 9.28885 8.93535 9.18077 9.02221 9.07622C9.06334 9.02669 9.10454 8.97709 9.14499 8.93034C9.27102 8.78371 9.32713 8.66987 9.39217 8.53801L9.42626 8.46951C9.58508 8.15396 9.44943 7.88767 9.40559 7.80169C9.36961 7.72973 8.72719 6.17928 8.65889 6.01639C8.49465 5.62332 8.27762 5.44031 7.97603 5.44031C7.94804 5.44031 7.97603 5.44031 7.85867 5.44525C7.71577 5.45128 6.93756 5.55374 6.59349 5.77063C6.22861 6.00067 5.61133 6.73395 5.61133 8.02353C5.61133 9.18416 6.34786 10.28 6.66409 10.6968C6.67195 10.7073 6.68638 10.7286 6.70732 10.7593C7.91836 12.5279 9.42809 13.8386 10.9585 14.45C12.4319 15.0385 13.1297 15.1066 13.5263 15.1066C13.5264 15.1066 13.5264 15.1066 13.5264 15.1066C13.6931 15.1066 13.8265 15.0935 13.9442 15.0819L14.0188 15.0748C14.5278 15.0297 15.6464 14.4501 15.9008 13.743C16.1013 13.1861 16.1541 12.5776 16.0208 12.3568C15.9294 12.2067 15.772 12.1311 15.5728 12.0354Z" fill="#7E7777"/>
<path d="M10.7506 0.043457C5.0985 0.043457 0.500153 4.60725 0.500153 10.2169C0.500153 12.0313 0.985709 13.8073 1.90553 15.3617L0.144964 20.555C0.112169 20.6518 0.136562 20.7589 0.208183 20.8318C0.259882 20.8846 0.330012 20.913 0.401633 20.913C0.429075 20.913 0.45672 20.9089 0.483688 20.9003L5.89893 19.1795C7.38081 19.9712 9.05566 20.3892 10.7507 20.3892C16.4023 20.3893 21.0002 15.8259 21.0002 10.2169C21.0002 4.60725 16.4023 0.043457 10.7506 0.043457ZM10.7506 18.27C9.15567 18.27 7.61085 17.8095 6.28292 16.9381C6.23827 16.9088 6.18643 16.8937 6.13426 16.8937C6.10668 16.8937 6.07903 16.8979 6.05213 16.9065L3.33943 17.7688L4.21514 15.1852C4.24346 15.1016 4.2293 15.0094 4.17713 14.9381C3.1659 13.5564 2.63136 11.9239 2.63136 10.2169C2.63136 5.77581 6.27364 2.16267 10.7506 2.16267C15.227 2.16267 18.8688 5.77581 18.8688 10.2169C18.8689 14.6574 15.2271 18.27 10.7506 18.27Z" fill="#7E7777"/>
</g>
<defs>
<clipPath id="clip0_27_86">
<rect width="20.8696" height="20.8696" fill="white" transform="translate(0.130371 0.043457)"/>
</clipPath>
</defs>
</svg>
