<svg width="27" height="27" viewBox="0 0 27 27" fill="none" xmlns="http://www.w3.org/2000/svg">
<g clip-path="url(#clip0_24_20)">
<path d="M24.8043 7.54349C24.6752 7.02763 24.4122 6.55498 24.042 6.17328C23.6717 5.79158 23.2073 5.51434 22.6956 5.36958C20.826 4.91306 13.3478 4.91306 13.3478 4.91306C13.3478 4.91306 5.86951 4.91306 3.99994 5.41306C3.48825 5.55782 3.02383 5.83506 2.65358 6.21676C2.28333 6.59846 2.02036 7.07111 1.89125 7.58697C1.54909 9.48431 1.38172 11.409 1.39125 13.337C1.37905 15.2794 1.54643 17.2188 1.89125 19.1304C2.03359 19.6303 2.30245 20.085 2.67184 20.4505C3.04123 20.8161 3.49866 21.0802 3.99994 21.2174C5.86951 21.7174 13.3478 21.7174 13.3478 21.7174C13.3478 21.7174 20.826 21.7174 22.6956 21.2174C23.2073 21.0726 23.6717 20.7954 24.042 20.4137C24.4122 20.032 24.6752 19.5593 24.8043 19.0435C25.1438 17.1604 25.3112 15.2504 25.3043 13.337C25.3165 11.3945 25.1491 9.45512 24.8043 7.54349V7.54349Z" stroke="white" stroke-width="1.30435" stroke-linecap="round" stroke-linejoin="round"/>
<path d="M10.9021 16.8913L17.1521 13.337L10.9021 9.78262V16.8913Z" stroke="white" stroke-width="1.30435" stroke-linecap="round" stroke-linejoin="round"/>
</g>
<defs>
<clipPath id="clip0_24_20">
<rect width="26.087" height="26.087" fill="white" transform="translate(0.304443 0.565216)"/>
</clipPath>
</defs>
</svg>
